<svg xmlns="http://www.w3.org/2000/svg" width="71" height="71" viewBox="0 0 71 71">
    <style>.a{fill:none;stroke-width:3;}</style>
    <path d="m12.2 1.7h8.6c5.7 0 10.3 4.4 10.3 9.9v9.4c0 2.7 0 9.9 0 9.9 0 0-7.5 0-10.3 0h-8.6C6.1 30.7 1.5 26.3 1.5 20.8v-9.4c0-2.7 0.1-9.8 0.1-9.8 0 0 7.4-0.1 10.2-0.1z" class="a"/>
    <path d="m59.5 1.7h-8.6c-5.7 0-10.3 4.4-10.3 9.9v9.4c0 2.7 0 9.9 0 9.9 0 0 7.5 0 10.3 0H59.1c5.7 0 10.3-4.4 10.3-9.9v-9.4c0-2.7-0.1-9.8-0.1-9.8 0 0-7.4-0.1-10.2-0.1z" class="a"/>
    <path d="m12.2 69.6h8.6c5.7 0 10.3-4.4 10.3-9.9v-9.4c0-2.7 0-9.9 0-9.9 0 0-7.5 0-10.3 0h-8.6c-5.7 0-10.3 4.4-10.3 9.9v9.4c0 2.7 0.1 9.8 0.1 9.8 0 0 7.4 0.1 10.2 0.1z" class="a"/>
    <path d="m31.2 30.9v9.4a8.2 8.2 0 0 0 1.2 0.1 8.2 8.2 0 0 0 8.2-8.2 8.2 8.2 0 0 0-0.1-1.3z"
          style="fill:none;stroke-linejoin:round;stroke-width:3"/>
</svg>
