<svg t="1638858479414" class="icon" viewBox="0 0 1024 1024" version="1.1" xmlns="http://www.w3.org/2000/svg" p-id="1667"
     width="200" height="200">
    <path d="M512 15.573333C229.76 15.573333 0 243.072 0 523.093333c0 186.026667 100.608 347.904 251.562667 435.413334l32.853333-216.576A300.629333 300.629333 0 0 1 205.653333 540.586667c0-166.272 135.68-301.909333 304.213334-301.909334 168.448 0 304.042667 135.637333 304.042666 301.909334 0 78.805333-30.592 148.821333-78.762666 203.52l32.853333 216.661333c153.173333-87.509333 256-251.690667 256-437.674667C1024 243.072 794.24 15.573333 512 15.573333z m-2.133333 347.989334a161.536 161.536 0 0 0-161.962667 161.92 159.488 159.488 0 0 0 105.002667 151.04L389.546667 1009.066667h240.64l-61.226667-332.586667c59.093333-24.064 102.826667-80.981333 102.826667-150.997333a161.536 161.536 0 0 0-161.92-161.92z"
          p-id="1668"></path>
</svg>
